<svg height="512pt" viewBox="-53 0 512 512.00019" width="512pt" xmlns="http://www.w3.org/2000/svg"><path d="m342.398438 502h48.191406c3.960937-16.878906 4.867187-25.476562 4.867187-34.597656 0-30.117188-24.414062-54.527344-54.53125-54.527344-25.953125 0-47.675781 18.132812-53.179687 42.425781-9.898438-10.101562-23.691406-16.367187-38.949219-16.367187-19.378906 0-36.394531 10.105468-46.066406 25.335937-9.671875-15.230469-26.691407-25.335937-46.066407-25.335937-15.257812 0-29.054687 6.265625-38.949218 16.367187-5.507813-24.292969-27.226563-42.425781-53.183594-42.425781-30.117188 0-54.53125 24.410156-54.53125 54.527344 0 9.121094.910156 17.71875 4.867188 34.597656h232.195312" fill="#4dbaf6"/><path d="m298.398438 512c-.648438 0-1.308594-.070312-1.957032-.199219-.644531-.121093-1.273437-.320312-1.871094-.570312-.601562-.25-1.179687-.558594-1.722656-.921875-.550781-.359375-1.058594-.777344-1.519531-1.238282-1.867187-1.859374-2.929687-4.441406-2.929687-7.070312 0-.648438.0625-1.308594.191406-1.949219s.320312-1.269531.570312-1.871093c.25-.609376.558594-1.191407.917969-1.730469.371094-.550781.78125-1.058594 1.25-1.519531.460937-.460938.972656-.878907 1.519531-1.238282.542969-.363281 1.121094-.671875 1.722656-.921875.609376-.25 1.226563-.449219 1.871094-.570312 1.289063-.257813 2.617188-.257813 3.90625 0 .640625.121093 1.273438.320312 1.871094.570312.601562.25 1.191406.558594 1.730469.921875.550781.359375 1.058593.777344 1.519531 1.238282 1.859375 1.859374 2.929688 4.441406 2.929688 7.070312s-1.070313 5.210938-2.929688 7.070312c-.460938.460938-.96875.878907-1.519531 1.238282-.539063.363281-1.128907.671875-1.730469.921875s-1.230469.449219-1.871094.570312c-.636718.128907-1.296875.199219-1.949218.199219zm0 0"/><path d="m117.011719 240.257812c-7.84375 1.914063-15.15625 5.171876-21.683594 9.519532-24.769531 16.53125-33.066406 49.324218-23.652344 77.570312l15.960938 60.152344 45.636719-57.914062" fill="#0082a0"/><path d="m272.601562 328.78125h-.300781l-.117187.804688 45.632812 57.914062 15.960938-60.152344c9.414062-28.246094 1.121094-61.039062-23.648438-77.570312-6.179687-4.117188-13.066406-7.265625-20.441406-9.207032" fill="#0082a0"/><path d="m135.132812 94.015625c-7.4375 14.960937-13.808593 31.851563-18 50.578125-5.3125 23.761719-5.199218 55.265625-2.175781 79.429688.023438.15625 19.734375 104.757812 19.734375 104.757812h136.910156s17.617188-89.488281 19.054688-99.25c5.496094-44.027344-.617188-94.589844-19.832031-135.480469h-.304688" fill="#fed271"/><path d="m161.859375 328.78125c-3.871094 6.828125-6.085937 14.722656-6.085937 23.136719 0 40.707031 46.953124 69.652343 46.953124 69.652343s46.957032-28.707031 46.957032-69.652343c0-8.414063-2.214844-16.308594-6.085938-23.136719zm0 0" fill="#f2484b"/><path d="m270.519531 94.050781c-16.703125 18.449219-40.832031 22.652344-67.675781 22.652344-26.960938 0-51.195312-4.320313-67.90625-22.902344 25.941406-52.082031 64.609375-80.960937 67.90625-83.8125 21.507812 15.445313 52.09375 50.800781 67.675781 84.0625zm0 0" fill="#dae9ec"/><path d="m202.726562 149.171875-48.488281 78.515625h21.605469v101.09375h53.769531v-101.09375h21.605469zm0 0" fill="#fcbd38"/><path d="m340.925781 402.871094c-14.71875 0-29.121093 5.089844-40.546875 14.328125-7.273437 5.878906-13.164062 13.28125-17.28125 21.570312-10.171875-6.410156-21.960937-9.839843-34.304687-9.839843-17.605469 0-34.0625 7.042968-46.066407 19.316406-12-12.273438-28.457031-19.316406-46.0625-19.316406-12.34375 0-24.132812 3.429687-34.304687 9.839843-4.117187-8.289062-10.011719-15.691406-17.28125-21.570312-11.425781-9.238281-25.828125-14.328125-40.546875-14.328125-35.582031 0-64.53125 28.949218-64.53125 64.53125 0 9.503906.839844 18.585937 5.132812 36.878906 1.058594 4.523438 5.089844 7.71875 9.734376 7.71875h232.195312c5.523438 0 10-4.476562 10-10s-4.476562-10-10-10h-224.175781c-2.371094-11.390625-2.886719-17.933594-2.886719-24.597656 0-24.554688 19.976562-44.53125 44.53125-44.53125 20.613281 0 38.878906 14.566406 43.425781 34.636718.8125 3.570313 3.503907 6.414063 7.027344 7.410157 3.523437 1 7.308594-.007813 9.871094-2.621094 8.445312-8.617187 19.742187-13.367187 31.804687-13.367187 15.328125 0 29.394532 7.738281 37.625 20.699218 1.835938 2.890625 5.019532 4.640625 8.441406 4.640625 3.421876 0 6.605469-1.75 8.441407-4.640625 8.230469-12.960937 22.296875-20.699218 37.625-20.699218 12.066406 0 23.359375 4.75 31.808593 13.367187 2.5625 2.613281 6.34375 3.621094 9.871094 2.621094 3.519532-.996094 6.214844-3.839844 7.023438-7.410157 4.546875-20.070312 22.8125-34.636718 43.429687-34.636718 24.554688 0 44.53125 19.976562 44.53125 44.53125 0 6.660156-.519531 13.207031-2.886719 24.597656h-40.175781c-5.519531 0-10 4.476562-10 10s4.480469 10 10 10h48.195313c4.644531 0 8.675781-3.195312 9.734375-7.71875 4.292969-18.292969 5.128906-27.375 5.128906-36.878906.003906-35.582032-28.945313-64.53125-64.527344-64.53125zm0 0"/><path d="m77.972656 390.066406c.972656 3.660156 3.929688 6.460938 7.640625 7.226563.675781.140625 1.351563.207031 2.027344.207031 3.023437 0 5.933594-1.375 7.851563-3.808594l43.265624-54.910156h8.546876c-1.011719 4.289062-1.53125 8.699219-1.53125 13.136719 0 45.765625 49.597656 76.863281 51.707031 78.164062 1.609375.992188 3.429687 1.488281 5.246093 1.488281 1.808594 0 3.617188-.488281 5.21875-1.46875 2.113282-1.292968 51.738282-32.164062 51.738282-78.183593 0-4.4375-.519532-8.847657-1.53125-13.136719h8.546875l43.265625 54.910156c1.917968 2.433594 4.824218 3.808594 7.851562 3.808594.675782 0 1.355469-.066406 2.027344-.207031 3.710938-.765625 6.667969-3.566407 7.640625-7.226563l15.882813-59.859375c11.167968-33.9375-.1875-70.394531-27.6875-88.75-4.890626-3.257812-10.089844-5.941406-15.53125-8.015625.179687-1.050781.316406-1.882812.402343-2.453125.011719-.074219.019531-.144531.027344-.21875 6.078125-48.65625-1.46875-100.039062-20.699219-140.972656-.347656-.738281-.777344-1.417969-1.273437-2.03125-17.21875-35.554687-48.640625-70.613281-69.929688-85.898437-3.746093-2.691407-8.875-2.445313-12.371093.554687-.195313.167969-.53125.4375-.984376.804687-28.554687 23.097657-53.175781 53.679688-69.335937 86.113282-.363281.726562-.628906 1.484375-.800781 2.257812-7.925782 16.324219-13.910156 33.40625-17.808594 50.8125-6.007812 26.859375-5.148438 60.410156-2.339844 82.851563.007813.058593.011719.117187.019532.171875.019531.125.03125.210937 1.417968 7.578125-5.863281 2.128906-11.453125 4.953125-16.695312 8.449219-27.496094 18.351562-38.855469 54.804687-27.6875 88.742187zm107.871094-152.378906h8.511719c5.519531 0 10-4.476562 10-10s-4.480469-10-10-10h-22.191407l30.5625-49.484375 30.5625 49.484375h-3.679687c-5.519531 0-10 4.476562-10 10v91.09375h-33.765625zm53.839844 114.230469c0 27.242187-25.660156 49.175781-36.949219 57.503906-11.308594-8.351563-36.960937-30.296875-36.960937-57.503906 0-4.507813.820312-8.964844 2.40625-13.136719h69.097656c1.582031 4.171875 2.40625 8.628906 2.40625 13.136719zm64.890625-93.820313c20.105469 13.414063 28.210937 40.59375 19.71875 66.089844-.066407.195312-.125.394531-.179688.59375l-10.828125 40.808594-30.996094-39.335938c2.476563-12.609375 9.519532-48.507812 14.125-72.703125 2.828126 1.289063 5.554688 2.804688 8.160157 4.546875zm-101.519531-235.292968c18.050781 14.992187 41.214843 42.257812 55.277343 69.167968-12.101562 10.269532-29.199219 14.730469-55.488281 14.730469-26.332031 0-43.476562-4.5-55.625-14.863281 13.867188-25.691406 33.386719-49.832032 55.835938-69.035156zm-76.160157 123.972656c2.761719-12.34375 6.679688-24.519532 11.6875-36.339844 19.6875 14.191406 44.148438 16.265625 64.257813 16.265625 20.085937 0 44.511718-2.058594 64.148437-16.164063 13.550781 35.105469 18.679688 78.058594 13.753907 117.640626-1.097657 7.308593-11.0625 58.488281-17.367188 90.601562h-23.765625v-81.09375h11.609375c3.625 0 6.96875-1.960938 8.734375-5.128906 1.765625-3.167969 1.679687-7.042969-.226563-10.125l-48.492187-78.515625c-1.820313-2.953125-5.042969-4.746094-8.507813-4.746094-3.46875 0-6.6875 1.792969-8.507812 4.746094l-48.492188 78.515625c-1.90625 3.082031-1.992187 6.957031-.226562 10.125 1.765625 3.164062 5.105469 5.128906 8.730469 5.128906h11.609375v81.09375h-22.859375c-4.472657-23.738281-17.230469-91.429688-18.144531-96.292969-3.21875-26.03125-2.414063-55.71875 2.058593-75.710937zm-26.023437 111.324218c2.980468-1.984374 6.113281-3.683593 9.367187-5.078124 2.777344 14.742187 7.050781 37.421874 13.632813 72.335937l-31.699219 40.230469-10.828125-40.808594c-.054688-.199219-.113281-.398438-.179688-.59375-8.496093-25.496094-.386718-52.675781 19.707032-66.085938zm0 0"/></svg>